<?xml version="1.0" encoding="UTF-8"?>
<!DOCTYPE svg PUBLIC "-//W3C//DTD SVG 1.1//EN" "http://www.w3.org/Graphics/SVG/1.1/DTD/svg11.dtd">
<svg xmlns="http://www.w3.org/2000/svg" version="1.1" width="512px" height="512px" style="shape-rendering:geometricPrecision; text-rendering:geometricPrecision; image-rendering:optimizeQuality; fill-rule:evenodd; clip-rule:evenodd" xmlns:xlink="http://www.w3.org/1999/xlink">
<g><path style="opacity:0.991" fill="#473762" d="M -0.5,74.5 C 29.8352,74.3334 60.1685,74.5 90.5,75C 130.886,134.948 170.886,195.115 210.5,255.5C 170.886,315.885 130.886,376.052 90.5,436C 60.1685,436.5 29.8352,436.667 -0.5,436.5C -0.5,435.833 -0.5,435.167 -0.5,434.5C 39.5352,375.121 79.2019,315.455 118.5,255.5C 79.2019,195.545 39.5352,135.879 -0.5,76.5C -0.5,75.8333 -0.5,75.1667 -0.5,74.5 Z"/></g>
<g><path style="opacity:0.991" fill="#634f88" d="M 119.5,74.5 C 150.174,74.1668 180.841,74.5002 211.5,75.5C 291.5,195.5 371.5,315.5 451.5,435.5C 421.172,436.667 390.839,436.833 360.5,436C 335.295,399.092 310.461,361.925 286,324.5C 260.971,361.364 236.137,398.364 211.5,435.5C 180.833,436.833 150.167,436.833 119.5,435.5C 159.5,375.5 199.5,315.5 239.5,255.5C 199.231,195.281 159.231,134.948 119.5,74.5 Z"/></g>
<g><path style="opacity:0.984" fill="#a04d8d" d="M 511.5,179.5 C 511.5,199.833 511.5,220.167 511.5,240.5C 457.496,240.833 403.496,240.5 349.5,239.5C 336.252,220.005 323.252,200.338 310.5,180.5C 377.497,179.5 444.497,179.167 511.5,179.5 Z"/></g>
<g><path style="opacity:0.985" fill="#a04d8d" d="M 511.5,270.5 C 511.5,290.833 511.5,311.167 511.5,331.5C 477.832,331.667 444.165,331.5 410.5,331C 397.167,311 383.833,291 370.5,271C 417.499,270.5 464.499,270.333 511.5,270.5 Z"/></g>
</svg>
