<?xml version="1.0" encoding="UTF-8"?>
<!DOCTYPE svg PUBLIC "-//W3C//DTD SVG 1.1//EN" "http://www.w3.org/Graphics/SVG/1.1/DTD/svg11.dtd">
<svg xmlns="http://www.w3.org/2000/svg" version="1.1" width="883px" height="1023px" style="shape-rendering:geometricPrecision; text-rendering:geometricPrecision; image-rendering:optimizeQuality; fill-rule:evenodd; clip-rule:evenodd" xmlns:xlink="http://www.w3.org/1999/xlink">
<g><path style="opacity:0.995" fill="#757576" d="M 728.5,12.5 C 762.485,12.9929 783.651,29.6595 792,62.5C 795.628,100.444 779.128,124.277 742.5,134C 699.713,136.546 675.713,116.546 670.5,74C 673.989,38.3489 693.322,17.8489 728.5,12.5 Z"/></g>
<g><path style="opacity:0.996" fill="#f37625" d="M 434.5,96.5 C 565.646,98.4307 672.479,149.764 755,250.5C 779.976,283.101 799.809,318.768 814.5,357.5C 814.167,357.833 813.833,358.167 813.5,358.5C 770.675,312.4 719.675,278.234 660.5,256C 535.59,210.673 408.59,204.006 279.5,236C 212.465,252.686 152.131,282.353 98.5,325C 86.6551,335.678 75.3218,346.845 64.5,358.5C 92.2915,281.515 139.625,219.015 206.5,171C 274.96,123.236 350.96,98.4023 434.5,96.5 Z"/></g>
<g><path style="opacity:0.982" fill="#606161" d="M 78.5,107.5 C 112.681,110.838 127.847,129.505 124,163.5C 115.434,187.699 98.2677,198.532 72.5,196C 52.9134,191.413 41.0801,179.246 37,159.5C 35.5158,129.828 49.3491,112.494 78.5,107.5 Z"/></g>
<g><path style="opacity:0.963" fill="#4d4d4d" d="M 595.5,390.5 C 596.495,402.989 596.829,415.656 596.5,428.5C 608.167,428.5 619.833,428.5 631.5,428.5C 631.5,434.833 631.5,441.167 631.5,447.5C 619.833,447.5 608.167,447.5 596.5,447.5C 596.333,472.169 596.5,496.836 597,521.5C 596.739,534.374 602.905,541.374 615.5,542.5C 619.831,541.751 624.164,541.084 628.5,540.5C 629.527,546.845 629.527,553.178 628.5,559.5C 594.345,569.945 575.345,557.612 571.5,522.5C 572.49,497.545 572.824,472.545 572.5,447.5C 565.5,447.5 558.5,447.5 551.5,447.5C 551.5,441.167 551.5,434.833 551.5,428.5C 558.5,428.5 565.5,428.5 572.5,428.5C 572.168,417.813 572.501,407.146 573.5,396.5C 581.028,394.787 588.361,392.787 595.5,390.5 Z"/></g>
<g><path style="opacity:0.955" fill="#4d4d4d" d="M 327.5,425.5 C 362.691,423.861 384.191,440.195 392,474.5C 396.802,498.704 392.468,521.037 379,541.5C 363.938,558.412 345.105,565.246 322.5,562C 310.686,559.837 301.186,554.004 294,544.5C 293.5,567.498 293.333,590.498 293.5,613.5C 285.167,613.5 276.833,613.5 268.5,613.5C 268.815,551.815 268.481,490.148 267.5,428.5C 275.167,428.5 282.833,428.5 290.5,428.5C 290.08,435.284 290.58,441.95 292,448.5C 300.564,435.766 312.398,428.099 327.5,425.5 Z M 326.5,445.5 C 347.886,445.372 361.386,455.705 367,476.5C 371.889,496.423 368.556,514.757 357,531.5C 341.092,545.867 324.259,547.034 306.5,535C 299.602,529.039 295.435,521.539 294,512.5C 293.333,501.5 293.333,490.5 294,479.5C 297.899,461.436 308.733,450.103 326.5,445.5 Z"/></g>
<g><path style="opacity:0.948" fill="#4d4d4d" d="M 854.5,425.5 C 858.833,425.5 863.167,425.5 867.5,425.5C 867.5,433.167 867.5,440.833 867.5,448.5C 844.853,446.989 831.353,457.323 827,479.5C 826.5,506.165 826.333,532.831 826.5,559.5C 818.167,559.5 809.833,559.5 801.5,559.5C 801.804,515.821 801.804,472.154 801.5,428.5C 808.833,428.5 816.167,428.5 823.5,428.5C 823.334,436.84 823.5,445.173 824,453.5C 828.985,438.342 839.151,429.009 854.5,425.5 Z"/></g>
<g><path style="opacity:0.961" fill="#4d4d4d" d="M 701.5,426.5 C 738.026,422.547 759.526,438.547 766,474.5C 766.974,482.807 767.474,491.141 767.5,499.5C 736.833,499.5 706.167,499.5 675.5,499.5C 677.053,526.887 691.553,541.553 719,543.5C 731.877,543.049 744.377,540.715 756.5,536.5C 757.517,542.567 758.85,548.567 760.5,554.5C 740.888,562.529 720.554,565.029 699.5,562C 668.428,553.587 652.094,533.254 650.5,501C 649.484,476.696 657.484,456.029 674.5,439C 682.721,432.99 691.721,428.823 701.5,426.5 Z M 707.5,442.5 C 731.98,443.313 744.313,455.98 744.5,480.5C 721.5,480.5 698.5,480.5 675.5,480.5C 677.281,460.232 687.948,447.566 707.5,442.5 Z"/></g>
<g><path style="opacity:0.955" fill="#4d4d4d" d="M 44.5,427.5 C 52.8333,427.5 61.1667,427.5 69.5,427.5C 69.1998,469.843 69.5331,512.177 70.5,554.5C 70.2384,571.79 64.7384,587.123 54,600.5C 42.1404,609.843 28.6404,614.843 13.5,615.5C 11.7071,609.633 10.3738,603.633 9.5,597.5C 19.0361,596.046 27.7027,592.546 35.5,587C 39.5027,581.826 42.0027,575.993 43,569.5C 44.4601,522.193 44.9601,474.86 44.5,427.5 Z"/></g>
<g><path style="opacity:0.977" fill="#4d4d4d" d="M 200.5,427.5 C 208.5,427.5 216.5,427.5 224.5,427.5C 224.204,471.515 224.537,515.515 225.5,559.5C 218.167,559.5 210.833,559.5 203.5,559.5C 202.966,553.501 202.299,547.501 201.5,541.5C 184.669,561.794 163.669,567.628 138.5,559C 123.681,550.556 115.515,537.723 114,520.5C 112.63,489.852 112.13,459.186 112.5,428.5C 120.833,428.5 129.167,428.5 137.5,428.5C 137.333,453.836 137.5,479.169 138,504.5C 137.7,516.607 141.533,527.107 149.5,536C 166.518,544.997 181.352,542.164 194,527.5C 195.941,523.952 197.607,520.286 199,516.5C 199.175,486.762 199.675,457.095 200.5,427.5 Z"/></g>
<g><path style="opacity:0.96" fill="#4d4d4d" d="M 409.5,428.5 C 418.525,428.168 427.525,428.502 436.5,429.5C 449.793,462.755 461.96,496.421 473,530.5C 484.072,496.45 495.239,462.45 506.5,428.5C 515.525,428.168 524.525,428.502 533.5,429.5C 519.333,465.833 505.167,502.167 491,538.5C 483.338,558.828 473.338,577.828 461,595.5C 450.629,607.436 437.795,615.436 422.5,619.5C 419.872,612.319 417.872,604.986 416.5,597.5C 437.555,590.28 451.888,576.113 459.5,555C 442.733,512.865 426.067,470.699 409.5,428.5 Z"/></g>
<g><path style="opacity:0.996" fill="#f37625" d="M 63.5,626.5 C 107.994,673.746 160.994,708.58 222.5,731C 332.375,770.237 444.709,779.237 559.5,758C 623.031,746.494 682.364,724.161 737.5,691C 765.98,673.199 791.48,651.699 814,626.5C 775.564,729.616 706.397,804.783 606.5,852C 493.204,901.227 380.204,900.56 267.5,850C 180.554,807.721 116.387,742.887 75,655.5C 70.6705,646.008 66.8372,636.341 63.5,626.5 Z"/></g>
<g><path style="opacity:0.989" fill="#9e9e9e" d="M 131.5,863.5 C 176.349,861.213 204.849,881.546 217,924.5C 222.474,964.391 207.308,993.224 171.5,1011C 138.131,1022.86 108.965,1016.36 84,991.5C 60.7447,961.195 58.7447,929.529 78,896.5C 91.3321,878.248 109.165,867.248 131.5,863.5 Z"/></g>
</svg>
