<?xml version="1.0" encoding="UTF-8"?>
<!DOCTYPE svg PUBLIC "-//W3C//DTD SVG 1.1//EN" "http://www.w3.org/Graphics/SVG/1.1/DTD/svg11.dtd">
<svg xmlns="http://www.w3.org/2000/svg" version="1.1" width="500px" height="500px" style="shape-rendering:geometricPrecision; text-rendering:geometricPrecision; image-rendering:optimizeQuality; fill-rule:evenodd; clip-rule:evenodd" xmlns:xlink="http://www.w3.org/1999/xlink">
<g><path style="opacity:0.13" fill="#7f7f7f" d="M 233.5,0.5 C 233.5,0.166667 233.5,-0.166667 233.5,-0.5C 243.167,-0.5 252.833,-0.5 262.5,-0.5C 268.5,0.166667 274.5,0.833333 280.5,1.5C 264.839,0.952596 249.172,0.619262 233.5,0.5 Z"/></g>
<g><path style="opacity:0.999" fill="#010101" d="M 233.5,0.5 C 249.172,0.619262 264.839,0.952596 280.5,1.5C 305.775,3.92986 329.775,10.5965 352.5,21.5C 353.602,24.7194 355.602,25.7194 358.5,24.5C 364.151,26.6588 369.484,29.3255 374.5,32.5C 375.373,36.5197 378.373,38.5197 383.5,38.5C 384.492,38.3284 385.158,38.6618 385.5,39.5C 385.877,41.8241 386.877,42.4908 388.5,41.5C 391.135,42.8109 393.469,44.4776 395.5,46.5C 395.951,49.3066 397.285,50.3066 399.5,49.5C 406.109,53.7763 412.109,58.7763 417.5,64.5C 417.973,65.9063 418.973,66.573 420.5,66.5C 420.343,67.8734 420.51,69.2068 421,70.5C 421.986,69.8288 423.153,69.8288 424.5,70.5C 481.57,128.361 505.903,198.028 497.5,279.5C 496.883,279.611 496.383,279.944 496,280.5C 495.118,287.836 494.285,295.169 493.5,302.5C 493.126,307.325 492.126,311.992 490.5,316.5C 488.72,317.99 488.054,319.99 488.5,322.5C 488.5,322.833 488.5,323.167 488.5,323.5C 486.716,324.574 485.549,326.24 485,328.5C 484.304,331.478 483.804,334.478 483.5,337.5C 479.424,350.315 473.758,362.315 466.5,373.5C 463.932,375.027 462.599,377.361 462.5,380.5C 459.53,381.359 458.53,383.026 459.5,385.5C 456.792,387.06 455.126,389.393 454.5,392.5C 451.564,398.041 447.897,403.041 443.5,407.5C 442.5,407.5 441.5,407.5 440.5,407.5C 440.5,408.5 440.5,409.5 440.5,410.5C 439.178,410.33 438.011,410.663 437,411.5C 436.535,412.931 435.701,414.097 434.5,415C 435.056,415.383 435.389,415.883 435.5,416.5C 434.094,416.973 433.427,417.973 433.5,419.5C 429.167,424.5 424.5,429.167 419.5,433.5C 417.973,433.427 416.973,434.094 416.5,435.5C 411.09,441.247 405.09,446.247 398.5,450.5C 396.381,450.468 395.048,451.468 394.5,453.5C 392.45,455.547 390.117,457.214 387.5,458.5C 385.61,458.703 384.11,458.037 383,456.5C 317.915,357.329 252.582,258.329 187,159.5C 185.581,158.54 184.081,157.707 182.5,157C 175.5,156.333 168.5,156.333 161.5,157C 159.376,158.122 157.543,159.622 156,161.5C 154.473,226.826 154.14,292.159 155,357.5C 155.668,361.499 157.835,364.332 161.5,366C 167.5,366.667 173.5,366.667 179.5,366C 182.583,365.214 184.749,363.381 186,360.5C 186.5,325.168 186.667,289.835 186.5,254.5C 187.167,241.5 187.833,228.5 188.5,215.5C 221.837,264.345 255.003,313.345 288,362.5C 314.763,398.381 341.263,434.381 367.5,470.5C 365.151,472.341 362.485,473.674 359.5,474.5C 357.847,474.66 356.514,475.326 355.5,476.5C 355.158,477.338 354.492,477.672 353.5,477.5C 351.447,477.402 349.78,478.069 348.5,479.5C 319.179,492.498 288.512,499.165 256.5,499.5C 252.167,499.5 247.833,499.5 243.5,499.5C 201.731,498.974 162.731,488.308 126.5,467.5C 125.656,465.241 123.989,464.241 121.5,464.5C 78.7066,438.708 46.3732,403.375 24.5,358.5C 25.7194,355.602 24.7194,353.602 21.5,352.5C 16.0045,341.021 11.6712,329.021 8.5,316.5C 8.82943,313.772 8.16276,311.438 6.5,309.5C 6.5,308.833 6.5,308.167 6.5,307.5C 6.82943,304.772 6.16276,302.438 4.5,300.5C 3.90843,297.873 3.5751,295.206 3.5,292.5C 3.66501,289.15 3.49834,285.817 3,282.5C 2.76791,281.263 2.26791,280.263 1.5,279.5C 0.852189,267.402 0.185522,255.402 -0.5,243.5C -0.5,241.167 -0.5,238.833 -0.5,236.5C 0.106106,222.408 2.10611,208.408 5.5,194.5C 7.34222,190.841 8.34222,186.841 8.5,182.5C 8.89437,178.653 9.89437,174.986 11.5,171.5C 12.4584,171.047 13.2917,170.381 14,169.5C 14.696,166.522 15.196,163.522 15.5,160.5C 22.4274,142.283 31.4274,125.283 42.5,109.5C 43.9063,109.027 44.573,108.027 44.5,106.5C 51.3198,95.8629 59.3198,86.1962 68.5,77.5C 70.5311,76.4613 71.8645,74.7946 72.5,72.5C 75.0892,71.5806 77.0892,69.914 78.5,67.5C 80.1667,66.5 81.5,65.1667 82.5,63.5C 85.7642,61.9059 88.4309,59.5725 90.5,56.5C 92.7488,55.9202 94.4154,54.5869 95.5,52.5C 97.4044,52.2624 98.7377,51.2624 99.5,49.5C 101.749,48.9202 103.415,47.5869 104.5,45.5C 106.205,43.8079 108.205,42.4746 110.5,41.5C 112.027,41.573 113.027,40.9063 113.5,39.5C 115.027,39.573 116.027,38.9063 116.5,37.5C 116.842,36.6618 117.508,36.3284 118.5,36.5C 120.027,36.573 121.027,35.9063 121.5,34.5C 123.027,34.573 124.027,33.9063 124.5,32.5C 125.514,31.3263 126.847,30.6596 128.5,30.5C 130.989,30.7593 132.656,29.7593 133.5,27.5C 134.209,26.596 135.209,26.2627 136.5,26.5C 138.027,26.573 139.027,25.9063 139.5,24.5C 141.698,24.8799 143.365,24.2132 144.5,22.5C 150.43,19.0394 156.764,16.3727 163.5,14.5C 165.698,14.8799 167.365,14.2132 168.5,12.5C 168.833,12.5 169.167,12.5 169.5,12.5C 171.898,12.7406 173.898,12.0739 175.5,10.5C 178.854,8.74241 182.521,7.74241 186.5,7.5C 191.12,7.25975 195.453,6.25975 199.5,4.5C 202.495,4.70621 205.162,4.03954 207.5,2.5C 216.066,0.858386 224.733,0.19172 233.5,0.5 Z"/></g>
<g><path style="opacity:0.431" fill="#979797" d="M 207.5,2.5 C 205.162,4.03954 202.495,4.70621 199.5,4.5C 201.905,3.2318 204.572,2.56513 207.5,2.5 Z"/></g>
<g><path style="opacity:0.533" fill="#646464" d="M 199.5,4.5 C 195.453,6.25975 191.12,7.25975 186.5,7.5C 190.547,5.74025 194.88,4.74025 199.5,4.5 Z"/></g>
<g><path style="opacity:0.639" fill="#787878" d="M 175.5,10.5 C 173.898,12.0739 171.898,12.7406 169.5,12.5C 171.214,11.2616 173.214,10.595 175.5,10.5 Z"/></g>
<g><path style="opacity:0.627" fill="#818181" d="M 168.5,12.5 C 167.365,14.2132 165.698,14.8799 163.5,14.5C 164.93,13.4625 166.597,12.7959 168.5,12.5 Z"/></g>
<g><path style="opacity:0.776" fill="#818181" d="M 144.5,22.5 C 143.365,24.2132 141.698,24.8799 139.5,24.5C 140.78,23.0687 142.447,22.4021 144.5,22.5 Z"/></g>
<g><path style="opacity:0.859" fill="#5a5a5a" d="M 352.5,21.5 C 354.819,21.9925 356.819,22.9925 358.5,24.5C 355.602,25.7194 353.602,24.7194 352.5,21.5 Z"/></g>
<g><path style="opacity:0.361" fill="#a8a8a8" d="M 139.5,24.5 C 139.027,25.9063 138.027,26.573 136.5,26.5C 136.973,25.0937 137.973,24.427 139.5,24.5 Z"/></g>
<g><path style="opacity:0.949" fill="#646464" d="M 133.5,27.5 C 132.656,29.7593 130.989,30.7593 128.5,30.5C 129.899,29.1103 131.566,28.1103 133.5,27.5 Z"/></g>
<g><path style="opacity:0.251" fill="#c3c3c3" d="M 124.5,32.5 C 124.027,33.9063 123.027,34.573 121.5,34.5C 121.973,33.0937 122.973,32.427 124.5,32.5 Z"/></g>
<g><path style="opacity:0.384" fill="#a1a1a1" d="M 121.5,34.5 C 121.027,35.9063 120.027,36.573 118.5,36.5C 118.973,35.0937 119.973,34.427 121.5,34.5 Z"/></g>
<g><path style="opacity:0.909" fill="#4d4d4d" d="M 374.5,32.5 C 378.054,33.7693 381.054,35.7693 383.5,38.5C 378.373,38.5197 375.373,36.5197 374.5,32.5 Z"/></g>
<g><path style="opacity:0.337" fill="#afafaf" d="M 116.5,37.5 C 116.027,38.9063 115.027,39.573 113.5,39.5C 113.973,38.0937 114.973,37.427 116.5,37.5 Z"/></g>
<g><path style="opacity:0.369" fill="#aaaaaa" d="M 113.5,39.5 C 113.027,40.9063 112.027,41.573 110.5,41.5C 110.973,40.0937 111.973,39.427 113.5,39.5 Z"/></g>
<g><path style="opacity:0.875" fill="#7b7b7b" d="M 385.5,39.5 C 387.027,39.427 388.027,40.0937 388.5,41.5C 386.877,42.4908 385.877,41.8241 385.5,39.5 Z"/></g>
<g><path style="opacity:0.686" fill="#818181" d="M 104.5,45.5 C 103.415,47.5869 101.749,48.9202 99.5,49.5C 100.585,47.4131 102.251,46.0798 104.5,45.5 Z"/></g>
<g><path style="opacity:0.91" fill="#656565" d="M 395.5,46.5 C 397.404,46.7376 398.738,47.7376 399.5,49.5C 397.285,50.3066 395.951,49.3066 395.5,46.5 Z"/></g>
<g><path style="opacity:0.424" fill="#878787" d="M 99.5,49.5 C 98.7377,51.2624 97.4044,52.2624 95.5,52.5C 96.2623,50.7376 97.5956,49.7376 99.5,49.5 Z"/></g>
<g><path style="opacity:0.624" fill="#797979" d="M 95.5,52.5 C 94.4154,54.5869 92.7488,55.9202 90.5,56.5C 91.5846,54.4131 93.2512,53.0798 95.5,52.5 Z"/></g>
<g><path style="opacity:0.498" fill="#777777" d="M 90.5,56.5 C 88.4309,59.5725 85.7642,61.9059 82.5,63.5C 84.5691,60.4275 87.2358,58.0941 90.5,56.5 Z"/></g>
<g><path style="opacity:0.2" fill="#b1b1b1" d="M 82.5,63.5 C 81.5,65.1667 80.1667,66.5 78.5,67.5C 78.8333,65.1667 80.1667,63.8333 82.5,63.5 Z"/></g>
<g><path style="opacity:0.012" fill="#cdcdcd" d="M 417.5,64.5 C 419.027,64.427 420.027,65.0937 420.5,66.5C 418.973,66.573 417.973,65.9063 417.5,64.5 Z"/></g>
<g><path style="opacity:0.929" fill="#565656" d="M 420.5,66.5 C 422.167,67.5 423.5,68.8333 424.5,70.5C 423.153,69.8288 421.986,69.8288 421,70.5C 420.51,69.2068 420.343,67.8734 420.5,66.5 Z"/></g>
<g><path style="opacity:0.486" fill="#797979" d="M 78.5,67.5 C 77.0892,69.914 75.0892,71.5806 72.5,72.5C 73.9108,70.086 75.9108,68.4194 78.5,67.5 Z"/></g>
<g><path style="opacity:0.851" fill="#535353" d="M 72.5,72.5 C 71.8645,74.7946 70.5311,76.4613 68.5,77.5C 69.0798,75.2512 70.4131,73.5846 72.5,72.5 Z"/></g>
<g><path style="opacity:0.157" fill="#7e7e7e" d="M 44.5,106.5 C 44.573,108.027 43.9063,109.027 42.5,109.5C 42.427,107.973 43.0937,106.973 44.5,106.5 Z"/></g>
<g><path style="opacity:1" fill="#fdfdfd" d="M 315.5,149.5 C 321.842,149.334 328.175,149.5 334.5,150C 337.333,151.5 339.5,153.667 341,156.5C 341.833,215.503 341.667,274.503 340.5,333.5C 329.851,318.883 319.685,303.883 310,288.5C 309.333,244.167 309.333,199.833 310,155.5C 311.36,152.977 313.193,150.977 315.5,149.5 Z"/></g>
<g><path style="opacity:0.998" fill="#fbfbfb" d="M 387.5,458.5 C 382.482,461.461 377.149,463.961 371.5,466C 369.93,467.397 368.596,468.897 367.5,470.5C 341.263,434.381 314.763,398.381 288,362.5C 255.003,313.345 221.837,264.345 188.5,215.5C 188.44,214.957 188.107,214.624 187.5,214.5C 186.501,227.817 186.167,241.15 186.5,254.5C 186.667,289.835 186.5,325.168 186,360.5C 184.749,363.381 182.583,365.214 179.5,366C 173.5,366.667 167.5,366.667 161.5,366C 157.835,364.332 155.668,361.499 155,357.5C 154.14,292.159 154.473,226.826 156,161.5C 157.543,159.622 159.376,158.122 161.5,157C 168.5,156.333 175.5,156.333 182.5,157C 184.081,157.707 185.581,158.54 187,159.5C 252.582,258.329 317.915,357.329 383,456.5C 384.11,458.037 385.61,458.703 387.5,458.5 Z"/></g>
<g><path style="opacity:0.812" fill="#4d4d4d" d="M 15.5,160.5 C 15.196,163.522 14.696,166.522 14,169.5C 13.2917,170.381 12.4584,171.047 11.5,171.5C 12.4624,167.605 13.7957,163.939 15.5,160.5 Z"/></g>
<g><path style="opacity:0.549" fill="#5f5f5f" d="M 8.5,182.5 C 8.34222,186.841 7.34222,190.841 5.5,194.5C 5.75466,190.2 6.75466,186.2 8.5,182.5 Z"/></g>
<g><path style="opacity:1" fill="#777777" d="M 188.5,215.5 C 187.833,228.5 187.167,241.5 186.5,254.5C 186.167,241.15 186.501,227.817 187.5,214.5C 188.107,214.624 188.44,214.957 188.5,215.5 Z"/></g>
<g><path style="opacity:0.487" fill="#3a3a3a" d="M 497.5,279.5 C 497.082,287.452 495.749,295.119 493.5,302.5C 494.285,295.169 495.118,287.836 496,280.5C 496.383,279.944 496.883,279.611 497.5,279.5 Z"/></g>
<g><path style="opacity:0.665" fill="#424242" d="M 1.5,279.5 C 2.26791,280.263 2.76791,281.263 3,282.5C 3.49834,285.817 3.66501,289.15 3.5,292.5C 2.10452,288.409 1.43786,284.076 1.5,279.5 Z"/></g>
<g><path style="opacity:0.184" fill="#848484" d="M 4.5,300.5 C 6.16276,302.438 6.82943,304.772 6.5,307.5C 5.38815,305.401 4.72148,303.067 4.5,300.5 Z"/></g>
<g><path style="opacity:0.18" fill="#8f8f8f" d="M 6.5,309.5 C 8.16276,311.438 8.82943,313.772 8.5,316.5C 7.38815,314.401 6.72148,312.067 6.5,309.5 Z"/></g>
<g><path style="opacity:0.282" fill="#6a6a6a" d="M 490.5,316.5 C 490.405,318.786 489.738,320.786 488.5,322.5C 488.054,319.99 488.72,317.99 490.5,316.5 Z"/></g>
<g><path style="opacity:0.802" fill="#494949" d="M 488.5,323.5 C 487.602,328.534 485.935,333.201 483.5,337.5C 483.804,334.478 484.304,331.478 485,328.5C 485.549,326.24 486.716,324.574 488.5,323.5 Z"/></g>
<g><path style="opacity:0.705" fill="#545454" d="M 21.5,352.5 C 24.7194,353.602 25.7194,355.602 24.5,358.5C 22.9925,356.819 21.9925,354.819 21.5,352.5 Z"/></g>
<g><path style="opacity:0.557" fill="#595959" d="M 466.5,373.5 C 465.921,376.331 464.588,378.664 462.5,380.5C 462.599,377.361 463.932,375.027 466.5,373.5 Z"/></g>
<g><path style="opacity:0.72" fill="#515151" d="M 462.5,380.5 C 462.25,382.674 461.25,384.341 459.5,385.5C 458.53,383.026 459.53,381.359 462.5,380.5 Z"/></g>
<g><path style="opacity:0.369" fill="#6b6b6b" d="M 459.5,385.5 C 458.567,388.37 456.9,390.704 454.5,392.5C 455.126,389.393 456.792,387.06 459.5,385.5 Z"/></g>
<g><path style="opacity:0.763" fill="#424242" d="M 443.5,407.5 C 441.547,411.12 438.881,414.12 435.5,416.5C 435.389,415.883 435.056,415.383 434.5,415C 435.701,414.097 436.535,412.931 437,411.5C 438.011,410.663 439.178,410.33 440.5,410.5C 440.5,409.5 440.5,408.5 440.5,407.5C 441.5,407.5 442.5,407.5 443.5,407.5 Z"/></g>
<g><path style="opacity:0.004" fill="#cbcbcb" d="M 435.5,416.5 C 435.573,418.027 434.906,419.027 433.5,419.5C 433.427,417.973 434.094,416.973 435.5,416.5 Z"/></g>
<g><path style="opacity:0.004" fill="#d3d3d3" d="M 419.5,433.5 C 419.027,434.906 418.027,435.573 416.5,435.5C 416.973,434.094 417.973,433.427 419.5,433.5 Z"/></g>
<g><path style="opacity:0.369" fill="#767676" d="M 398.5,450.5 C 397.738,452.262 396.404,453.262 394.5,453.5C 395.048,451.468 396.381,450.468 398.5,450.5 Z"/></g>
<g><path style="opacity:0.629" fill="#565656" d="M 121.5,464.5 C 123.989,464.241 125.656,465.241 126.5,467.5C 124.566,466.89 122.899,465.89 121.5,464.5 Z"/></g>
<g><path style="opacity:0.075" fill="#e8e8e8" d="M 359.5,474.5 C 358.713,476.104 357.38,476.771 355.5,476.5C 356.514,475.326 357.847,474.66 359.5,474.5 Z"/></g>
<g><path style="opacity:0.078" fill="#d0d0d0" d="M 353.5,477.5 C 352.22,478.931 350.553,479.598 348.5,479.5C 349.78,478.069 351.447,477.402 353.5,477.5 Z"/></g>
</svg>
