<?xml version="1.0" encoding="UTF-8"?>
<!DOCTYPE svg PUBLIC "-//W3C//DTD SVG 1.1//EN" "http://www.w3.org/Graphics/SVG/1.1/DTD/svg11.dtd">
<svg xmlns="http://www.w3.org/2000/svg" version="1.1" width="400px" height="400px" style="shape-rendering:geometricPrecision; text-rendering:geometricPrecision; image-rendering:optimizeQuality; fill-rule:evenodd; clip-rule:evenodd" xmlns:xlink="http://www.w3.org/1999/xlink">
<g><path style="opacity:0.967" fill="#db6752" d="M 319.5,49.5 C 320.59,50.8571 321.924,51.8571 323.5,52.5C 317.804,50.7697 311.97,49.7697 306,49.5C 300.03,49.7697 294.196,50.7697 288.5,52.5C 291.5,51.1667 294.5,49.8333 297.5,48.5C 304.813,47.0268 312.147,47.3602 319.5,49.5 Z"/></g>
<g><path style="opacity:0.51" fill="#f5b9a4" d="M 297.5,48.5 C 294.5,49.8333 291.5,51.1667 288.5,52.5C 287.833,52.5 287.167,52.5 286.5,52.5C 289.626,50.0103 293.292,48.677 297.5,48.5 Z"/></g>
<g><path style="opacity:0.2" fill="#f9bcb0" d="M 319.5,49.5 C 323.431,50.1322 326.765,51.7989 329.5,54.5C 327.5,53.8333 325.5,53.1667 323.5,52.5C 321.924,51.8571 320.59,50.8571 319.5,49.5 Z"/></g>
<g><path style="opacity:0.525" fill="#efa88e" d="M 286.5,52.5 C 286.027,53.9063 285.027,54.573 283.5,54.5C 283.973,53.0937 284.973,52.427 286.5,52.5 Z"/></g>
<g><path style="opacity:1" fill="#ef3d1f" d="M 323.5,52.5 C 324.749,54.1361 326.416,55.3028 328.5,56C 329.255,59.2066 331.255,60.7066 334.5,60.5C 335.167,60.5 335.5,60.8333 335.5,61.5C 336.933,63.5582 337.6,65.8915 337.5,68.5C 338.833,68.5 340.167,68.5 341.5,68.5C 341.755,75.9491 343.088,83.1157 345.5,90C 344.96,94.4887 344.626,98.9887 344.5,103.5C 344.5,103.833 344.5,104.167 344.5,104.5C 342.715,106.954 340.382,108.621 337.5,109.5C 337.5,111.167 337.5,112.833 337.5,114.5C 336.036,116.63 334.036,117.963 331.5,118.5C 331.5,119.833 331.5,121.167 331.5,122.5C 331.167,122.5 330.833,122.5 330.5,122.5C 326.941,122.408 323.608,123.241 320.5,125C 320.833,125.333 321.167,125.667 321.5,126C 313.399,128.397 305.066,129.063 296.5,128C 292.809,126.665 289.142,125.499 285.5,124.5C 284.833,124.5 284.167,124.5 283.5,124.5C 282.738,122.738 281.404,121.738 279.5,121.5C 278.5,121.167 277.833,120.5 277.5,119.5C 277.167,118.833 276.833,118.167 276.5,117.5C 276.657,116.127 276.49,114.793 276,113.5C 273.893,110.559 271.893,107.559 270,104.5C 269.667,102.5 269.333,100.5 269,98.5C 268.586,98.0426 268.086,97.7093 267.5,97.5C 266.504,91.5368 266.171,85.5368 266.5,79.5C 266.5,78.8333 266.5,78.1667 266.5,77.5C 268.405,74.6963 270.071,71.6963 271.5,68.5C 274.471,65.1924 277.471,61.859 280.5,58.5C 281.5,57.1667 282.5,55.8333 283.5,54.5C 285.027,54.573 286.027,53.9063 286.5,52.5C 287.167,52.5 287.833,52.5 288.5,52.5C 294.196,50.7697 300.03,49.7697 306,49.5C 311.97,49.7697 317.804,50.7697 323.5,52.5 Z"/></g>
<g><path style="opacity:0.502" fill="#edaa97" d="M 331.5,55.5 C 332.833,56.1667 333.833,57.1667 334.5,58.5C 332.5,58.5 331.5,57.5 331.5,55.5 Z"/></g>
<g><path style="opacity:0.345" fill="#f3b2a2" d="M 283.5,54.5 C 282.5,55.8333 281.5,57.1667 280.5,58.5C 277.569,60.0908 274.902,62.0908 272.5,64.5C 274.892,59.7749 278.559,56.4416 283.5,54.5 Z"/></g>
<g><path style="opacity:1" fill="#d9583f" d="M 323.5,52.5 C 325.5,53.1667 327.5,53.8333 329.5,54.5C 330.492,54.3284 331.158,54.6618 331.5,55.5C 331.5,57.5 332.5,58.5 334.5,58.5C 334.5,59.1667 334.5,59.8333 334.5,60.5C 331.255,60.7066 329.255,59.2066 328.5,56C 326.416,55.3028 324.749,54.1361 323.5,52.5 Z"/></g>
<g><path style="opacity:0.773" fill="#efa08b" d="M 334.5,58.5 C 337.573,60.5691 339.906,63.2358 341.5,66.5C 339.5,64.8333 337.5,63.1667 335.5,61.5C 335.5,60.8333 335.167,60.5 334.5,60.5C 334.5,59.8333 334.5,59.1667 334.5,58.5 Z"/></g>
<g><path style="opacity:1" fill="#c84d34" d="M 280.5,58.5 C 277.471,61.859 274.471,65.1924 271.5,68.5C 271.833,67.1667 272.167,65.8333 272.5,64.5C 274.902,62.0908 277.569,60.0908 280.5,58.5 Z"/></g>
<g><path style="opacity:1" fill="#d54931" d="M 335.5,61.5 C 337.5,63.1667 339.5,64.8333 341.5,66.5C 341.5,67.1667 341.5,67.8333 341.5,68.5C 340.167,68.5 338.833,68.5 337.5,68.5C 337.6,65.8915 336.933,63.5582 335.5,61.5 Z"/></g>
<g><path style="opacity:0.118" fill="#fcd0c8" d="M 341.5,66.5 C 342.906,66.9731 343.573,67.9731 343.5,69.5C 342.833,69.1667 342.167,68.8333 341.5,68.5C 341.5,67.8333 341.5,67.1667 341.5,66.5 Z"/></g>
<g><path style="opacity:0.686" fill="#e8998d" d="M 343.5,69.5 C 344.537,70.9303 345.204,72.597 345.5,74.5C 343.787,73.3646 343.12,71.698 343.5,69.5 Z"/></g>
<g><path style="opacity:0.686" fill="#82aeb8" d="M 255.5,73.5 C 255.5,73.8333 255.5,74.1667 255.5,74.5C 198.167,74.5 140.833,74.5 83.5,74.5C 84.2625,73.7321 85.2625,73.2321 86.5,73C 114.167,72.8333 141.833,72.6667 169.5,72.5C 198.514,72.5122 227.18,72.8455 255.5,73.5 Z"/></g>
<g><path style="opacity:1" fill="#10576b" d="M 83.5,74.5 C 140.833,74.5 198.167,74.5 255.5,74.5C 255.5,74.8333 255.5,75.1667 255.5,75.5C 202.163,75.1667 148.829,75.5001 95.5,76.5C 89.2602,76.9409 83.2602,78.2742 77.5,80.5C 78.9163,78.8207 80.2497,77.1541 81.5,75.5C 81.8417,74.6618 82.5084,74.3284 83.5,74.5 Z"/></g>
<g><path style="opacity:0.851" fill="#e58474" d="M 272.5,64.5 C 272.167,65.8333 271.833,67.1667 271.5,68.5C 270.071,71.6963 268.405,74.6963 266.5,77.5C 266.5,76.8333 266.5,76.1667 266.5,75.5C 267.742,71.3447 269.742,67.678 272.5,64.5 Z"/></g>
<g><path style="opacity:0.455" fill="#97bdc4" d="M 81.5,75.5 C 80.2497,77.1541 78.9163,78.8207 77.5,80.5C 76.8333,80.5 76.5,80.8333 76.5,81.5C 76.1667,81.5 75.8333,81.5 75.5,81.5C 76.5,78.5 78.5,76.5 81.5,75.5 Z"/></g>
<g><path style="opacity:1" fill="#0a607c" d="M 255.5,75.5 C 254.952,77.6264 254.285,79.6264 253.5,81.5C 252.913,85.5703 251.913,90.9036 250.5,97.5C 252.376,99.048 253.376,101.048 253.5,103.5C 204.33,103.168 155.33,103.501 106.5,104.5C 105.833,104.5 105.5,104.833 105.5,105.5C 105.5,107.167 105.5,108.833 105.5,110.5C 105.5,159.833 105.5,209.167 105.5,258.5C 104.667,208.002 104.167,157.335 104,106.5C 103.5,166.832 103.333,227.166 103.5,287.5C 102.378,289.288 102.211,291.288 103,293.5C 103.5,294.667 104.333,295.5 105.5,296C 168.167,296.667 230.833,296.667 293.5,296C 294.579,295.044 295.745,294.211 297,293.5C 299.027,293.986 301.193,293.986 303.5,293.5C 303.5,292.5 303.5,291.5 303.5,290.5C 301.25,290.819 299.25,290.319 297.5,289C 298.579,288.044 299.745,287.211 301,286.5C 301.807,242.815 301.64,199.148 300.5,155.5C 298.234,155.141 296.401,155.808 295,157.5C 294.501,152.177 294.334,146.844 294.5,141.5C 300.31,142.711 305.977,142.711 311.5,141.5C 314.167,141.5 316.833,141.5 319.5,141.5C 320.287,143.104 321.62,143.771 323.5,143.5C 323.667,196.834 323.5,250.168 323,303.5C 322.308,304.025 321.808,304.692 321.5,305.5C 323.058,310.325 322.391,314.825 319.5,319C 317.117,319.065 316.45,319.898 317.5,321.5C 315.577,322.308 313.577,322.808 311.5,323C 275.5,323.167 239.5,323.333 203.5,323.5C 163.482,323.63 123.482,323.13 83.5,322C 81.3762,320.878 79.5429,319.378 78,317.5C 75.1879,304.421 75.0213,291.421 77.5,278.5C 77,277.5 76.5,276.5 76,275.5C 75.3333,215.5 75.3333,155.5 76,95.5C 76.226,91.1126 76.726,86.7793 77.5,82.5C 77.3764,81.8933 77.0431,81.56 76.5,81.5C 76.5,80.8333 76.8333,80.5 77.5,80.5C 83.2602,78.2742 89.2602,76.9409 95.5,76.5C 148.829,75.5001 202.163,75.1667 255.5,75.5 Z"/></g>
<g><path style="opacity:0.235" fill="#ffc9bc" d="M 266.5,75.5 C 266.5,76.1667 266.5,76.8333 266.5,77.5C 266.5,78.1667 266.5,78.8333 266.5,79.5C 265.566,80.5676 265.232,81.901 265.5,83.5C 265.167,83.5 264.833,83.5 264.5,83.5C 264.294,80.5049 264.96,77.8383 266.5,75.5 Z"/></g>
<g><path style="opacity:0.749" fill="#eb8a78" d="M 345.5,74.5 C 347.074,76.1016 347.741,78.1016 347.5,80.5C 347.5,81.5 347.5,82.5 347.5,83.5C 346.343,80.7273 345.676,77.7273 345.5,74.5 Z"/></g>
<g><path style="opacity:0.331" fill="#f7bcb0" d="M 347.5,80.5 C 349.323,89.6106 348.489,98.6106 345,107.5C 344.303,109.584 343.136,111.251 341.5,112.5C 342.5,109.833 343.5,107.167 344.5,104.5C 344.5,104.167 344.5,103.833 344.5,103.5C 347.034,97.2023 348.034,90.5356 347.5,83.5C 347.5,82.5 347.5,81.5 347.5,80.5 Z"/></g>
<g><path style="opacity:1" fill="#db452b" d="M 341.5,68.5 C 342.167,68.8333 342.833,69.1667 343.5,69.5C 343.12,71.698 343.787,73.3646 345.5,74.5C 345.676,77.7273 346.343,80.7273 347.5,83.5C 348.034,90.5356 347.034,97.2023 344.5,103.5C 344.626,98.9887 344.96,94.4887 345.5,90C 343.088,83.1157 341.755,75.9491 341.5,68.5 Z"/></g>
<g><path style="opacity:0.255" fill="#a6cbd3" d="M 255.5,73.5 C 256.139,74.0968 256.472,74.9302 256.5,76C 254.924,82.4058 254.258,88.9058 254.5,95.5C 253.514,91.03 253.181,86.3633 253.5,81.5C 254.285,79.6264 254.952,77.6264 255.5,75.5C 255.5,75.1667 255.5,74.8333 255.5,74.5C 255.5,74.1667 255.5,73.8333 255.5,73.5 Z"/></g>
<g><path style="opacity:0.6" fill="#e6a197" d="M 264.5,83.5 C 264.833,83.5 265.167,83.5 265.5,83.5C 265.5,88.8333 265.5,94.1667 265.5,99.5C 263.653,94.359 263.319,89.0257 264.5,83.5 Z"/></g>
<g><path style="opacity:1" fill="#de4e37" d="M 266.5,79.5 C 266.171,85.5368 266.504,91.5368 267.5,97.5C 268.086,97.7093 268.586,98.0426 269,98.5C 269.333,100.5 269.667,102.5 270,104.5C 271.893,107.559 273.893,110.559 276,113.5C 276.49,114.793 276.657,116.127 276.5,117.5C 275.833,117.5 275.167,117.5 274.5,117.5C 273.833,116.5 273.167,115.5 272.5,114.5C 272.573,112.973 271.906,111.973 270.5,111.5C 269.326,110.486 268.66,109.153 268.5,107.5C 268.397,104.364 267.397,101.698 265.5,99.5C 265.5,94.1667 265.5,88.8333 265.5,83.5C 265.232,81.901 265.566,80.5676 266.5,79.5 Z"/></g>
<g><path style="opacity:1" fill="#185a6c" d="M 253.5,81.5 C 253.181,86.3633 253.514,91.03 254.5,95.5C 255.468,97.6074 255.802,99.9407 255.5,102.5C 206.178,104.495 156.511,105.162 106.5,104.5C 155.33,103.501 204.33,103.168 253.5,103.5C 253.376,101.048 252.376,99.048 250.5,97.5C 251.913,90.9036 252.913,85.5703 253.5,81.5 Z"/></g>
<g><path style="opacity:1" fill="#548794" d="M 255.5,102.5 C 256.404,103.209 256.737,104.209 256.5,105.5C 256.167,105.5 255.833,105.5 255.5,105.5C 254.5,105.5 253.5,105.5 252.5,105.5C 203.5,105.5 154.5,105.5 105.5,105.5C 105.5,104.833 105.833,104.5 106.5,104.5C 156.511,105.162 206.178,104.495 255.5,102.5 Z"/></g>
<g><path style="opacity:1" fill="#b7ccd3" d="M 105.5,105.5 C 154.5,105.5 203.5,105.5 252.5,105.5C 204.335,106.333 156.002,106.833 107.5,107C 106.915,108.302 106.249,109.469 105.5,110.5C 105.5,108.833 105.5,107.167 105.5,105.5 Z"/></g>
<g><path style="opacity:0.373" fill="#f6ada5" d="M 265.5,99.5 C 267.397,101.698 268.397,104.364 268.5,107.5C 266.415,105.316 265.415,102.649 265.5,99.5 Z"/></g>
<g><path style="opacity:0.765" fill="#d8897d" d="M 255.5,105.5 C 255.833,105.5 256.167,105.5 256.5,105.5C 258.074,107.102 258.741,109.102 258.5,111.5C 258.167,111.5 257.833,111.5 257.5,111.5C 257.368,108.993 256.368,108.326 254.5,109.5C 254.557,108.391 254.89,107.391 255.5,106.5C 255.5,106.167 255.5,105.833 255.5,105.5 Z"/></g>
<g><path style="opacity:1" fill="#c4c6bb" d="M 252.5,107.5 C 249.82,112.199 247.82,117.199 246.5,122.5C 243.916,123.048 242.916,124.715 243.5,127.5C 242.5,127.5 241.5,127.5 240.5,127.5C 238.602,131.669 236.435,135.669 234,139.5C 233.51,140.793 233.343,142.127 233.5,143.5C 232.5,143.5 231.5,143.5 230.5,143.5C 230.5,144.833 230.5,146.167 230.5,147.5C 229.5,147.5 228.5,147.5 227.5,147.5C 228.092,151.074 226.592,153.074 223,153.5C 221.729,156.482 220.562,159.482 219.5,162.5C 216.23,163.103 214.23,165.103 213.5,168.5C 211.983,167.089 210.649,167.256 209.5,169C 212.051,170.516 211.718,171.349 208.5,171.5C 208.5,172.833 208.5,174.167 208.5,175.5C 204.5,175.5 202.5,177.5 202.5,181.5C 200.119,183.308 197.452,184.808 194.5,186C 194.833,186.333 195.167,186.667 195.5,187C 194.167,187.333 192.833,187.667 191.5,188C 193.976,190.3 193.476,192.133 190,193.5C 186.501,194.867 183.167,194.534 180,192.5C 177.046,195.492 177.213,198.492 180.5,201.5C 179.478,202.354 178.645,203.354 178,204.5C 177.667,204.167 177.333,203.833 177,203.5C 176.51,204.793 176.343,206.127 176.5,207.5C 174.833,207.5 173.167,207.5 171.5,207.5C 171.5,208.833 171.5,210.167 171.5,211.5C 167.658,211.582 165.658,213.582 165.5,217.5C 162.544,218.137 159.544,218.637 156.5,219C 155.198,221.213 154.198,223.546 153.5,226C 151.866,226.494 150.199,226.66 148.5,226.5C 148.349,229.718 147.516,230.051 146,227.5C 145.506,229.134 145.34,230.801 145.5,232.5C 144.127,232.343 142.793,232.51 141.5,233C 141.833,233.333 142.167,233.667 142.5,234C 139.457,235.119 136.79,236.785 134.5,239C 133.207,239.49 131.873,239.657 130.5,239.5C 130.719,240.675 130.386,241.675 129.5,242.5C 127.224,243.213 124.891,243.713 122.5,244C 122.384,245.268 122.051,246.602 121.5,248C 117.079,250.123 112.745,252.29 108.5,254.5C 109.807,206.611 109.807,158.778 108.5,111C 109.126,110.25 109.626,109.416 110,108.5C 157.491,107.564 204.991,107.231 252.5,107.5 Z"/></g>
<g><path style="opacity:1" fill="#da4631" d="M 344.5,104.5 C 343.5,107.167 342.5,109.833 341.5,112.5C 340.5,112.833 339.833,113.5 339.5,114.5C 338.833,114.5 338.167,114.5 337.5,114.5C 337.5,112.833 337.5,111.167 337.5,109.5C 340.382,108.621 342.715,106.954 344.5,104.5 Z"/></g>
<g><path style="opacity:1" fill="#155365" d="M 105.5,258.5 C 105.5,260.833 105.5,263.167 105.5,265.5C 105.033,276.043 104.366,283.376 103.5,287.5C 103.333,227.166 103.5,166.832 104,106.5C 104.167,157.335 104.667,208.002 105.5,258.5 Z"/></g>
<g><path style="opacity:1" fill="#bdc8c2" d="M 252.5,105.5 C 253.5,105.5 254.5,105.5 255.5,105.5C 255.5,105.833 255.5,106.167 255.5,106.5C 254.391,106.557 253.391,106.89 252.5,107.5C 204.991,107.231 157.491,107.564 110,108.5C 109.626,109.416 109.126,110.25 108.5,111C 109.807,158.778 109.807,206.611 108.5,254.5C 107.596,255.209 107.263,256.209 107.5,257.5C 106.833,257.833 106.167,258.167 105.5,258.5C 105.5,209.167 105.5,159.833 105.5,110.5C 106.249,109.469 106.915,108.302 107.5,107C 156.002,106.833 204.335,106.333 252.5,105.5 Z"/></g>
<g><path style="opacity:1" fill="#06617b" d="M 99.5,111.5 C 100.833,135.157 101.5,159.157 101.5,183.5C 101.333,207.5 101.167,231.5 101,255.5C 99.5052,207.644 99.0052,159.644 99.5,111.5 Z"/></g>
<g><path style="opacity:0.224" fill="#f3b4a1" d="M 258.5,111.5 C 259.906,111.973 260.573,112.973 260.5,114.5C 259.833,114.167 259.167,113.833 258.5,113.5C 258.5,112.833 258.5,112.167 258.5,111.5 Z"/></g>
<g><path style="opacity:0.067" fill="#ffcebf" d="M 270.5,111.5 C 271.906,111.973 272.573,112.973 272.5,114.5C 271.094,114.027 270.427,113.027 270.5,111.5 Z"/></g>
<g><path style="opacity:1" fill="#deb9a8" d="M 255.5,106.5 C 254.89,107.391 254.557,108.391 254.5,109.5C 252.097,113.968 249.43,118.301 246.5,122.5C 247.82,117.199 249.82,112.199 252.5,107.5C 253.391,106.89 254.391,106.557 255.5,106.5 Z"/></g>
<g><path style="opacity:1" fill="#d84e38" d="M 257.5,111.5 C 256.85,111.196 256.183,110.863 255.5,110.5C 254.692,112.423 254.192,114.423 254,116.5C 251.161,120.187 248.328,123.853 245.5,127.5C 245.366,125.708 245.699,124.042 246.5,122.5C 249.43,118.301 252.097,113.968 254.5,109.5C 256.368,108.326 257.368,108.993 257.5,111.5 Z"/></g>
<g><path style="opacity:0.031" fill="#fdd5d0" d="M 341.5,112.5 C 341.573,114.027 340.906,115.027 339.5,115.5C 339.5,115.167 339.5,114.833 339.5,114.5C 339.833,113.5 340.5,112.833 341.5,112.5 Z"/></g>
<g><path style="opacity:0.314" fill="#fbc3b7" d="M 274.5,117.5 C 275.167,117.5 275.833,117.5 276.5,117.5C 276.833,118.167 277.167,118.833 277.5,119.5C 275.973,119.573 274.973,118.906 274.5,117.5 Z"/></g>
<g><path style="opacity:0.251" fill="#fdb3a8" d="M 261.5,116.5 C 262.906,116.973 263.573,117.973 263.5,119.5C 262.094,119.027 261.427,118.027 261.5,116.5 Z"/></g>
<g><path style="opacity:1" fill="#df6c56" d="M 337.5,114.5 C 338.167,114.5 338.833,114.5 339.5,114.5C 339.5,114.833 339.5,115.167 339.5,115.5C 338.833,116.833 337.833,117.833 336.5,118.5C 335.5,118.833 334.833,119.5 334.5,120.5C 334.167,121.5 333.5,122.167 332.5,122.5C 332.167,122.5 331.833,122.5 331.5,122.5C 331.5,121.167 331.5,119.833 331.5,118.5C 334.036,117.963 336.036,116.63 337.5,114.5 Z"/></g>
<g><path style="opacity:0.008" fill="#ffddd5" d="M 336.5,118.5 C 336.5,119.833 335.833,120.5 334.5,120.5C 334.833,119.5 335.5,118.833 336.5,118.5 Z"/></g>
<g><path style="opacity:0.525" fill="#f7aba1" d="M 263.5,119.5 C 264.906,119.973 265.573,120.973 265.5,122.5C 264.094,122.027 263.427,121.027 263.5,119.5 Z"/></g>
<g><path style="opacity:0.49" fill="#eaa289" d="M 279.5,121.5 C 281.404,121.738 282.738,122.738 283.5,124.5C 281.596,124.262 280.262,123.262 279.5,121.5 Z"/></g>
<g><path style="opacity:0.722" fill="#e89083" d="M 265.5,122.5 C 267.5,123.833 269.167,125.5 270.5,127.5C 267.833,126.833 266.167,125.167 265.5,122.5 Z"/></g>
<g><path style="opacity:0.027" fill="#ffe1c4" d="M 330.5,122.5 C 330.833,122.5 331.167,122.5 331.5,122.5C 331.833,122.5 332.167,122.5 332.5,122.5C 332.027,123.906 331.027,124.573 329.5,124.5C 329.833,123.833 330.167,123.167 330.5,122.5 Z"/></g>
<g><path style="opacity:1" fill="#de452f" d="M 258.5,113.5 C 259.167,113.833 259.833,114.167 260.5,114.5C 261.338,114.842 261.672,115.508 261.5,116.5C 261.427,118.027 262.094,119.027 263.5,119.5C 263.427,121.027 264.094,122.027 265.5,122.5C 266.167,125.167 267.833,126.833 270.5,127.5C 270.5,129.5 271.5,130.5 273.5,130.5C 273.5,131.167 273.5,131.833 273.5,132.5C 268.917,132.972 266.417,130.972 266,126.5C 264.209,124.587 262.209,122.92 260,121.5C 259.178,118.883 258.678,116.216 258.5,113.5 Z"/></g>
<g><path style="opacity:0.216" fill="#f5afa4" d="M 283.5,124.5 C 284.167,124.5 284.833,124.5 285.5,124.5C 285.833,125.167 286.167,125.833 286.5,126.5C 284.973,126.573 283.973,125.906 283.5,124.5 Z"/></g>
<g><path style="opacity:0.737" fill="#f4b0a2" d="M 288.5,127.5 C 295.934,129.971 303.6,130.971 311.5,130.5C 311.5,130.833 311.5,131.167 311.5,131.5C 303.336,132.733 295.669,131.399 288.5,127.5 Z"/></g>
<g><path style="opacity:0.173" fill="#fac6bc" d="M 329.5,124.5 C 324.44,129.022 318.44,131.355 311.5,131.5C 311.5,131.167 311.5,130.833 311.5,130.5C 317.877,129.645 323.877,127.645 329.5,124.5 Z"/></g>
<g><path style="opacity:0.671" fill="#ef8f7b" d="M 270.5,127.5 C 271.833,128.167 272.833,129.167 273.5,130.5C 271.5,130.5 270.5,129.5 270.5,127.5 Z"/></g>
<g><path style="opacity:1" fill="#d9472d" d="M 330.5,122.5 C 330.167,123.167 329.833,123.833 329.5,124.5C 323.877,127.645 317.877,129.645 311.5,130.5C 303.6,130.971 295.934,129.971 288.5,127.5C 287.508,127.672 286.842,127.338 286.5,126.5C 286.167,125.833 285.833,125.167 285.5,124.5C 289.142,125.499 292.809,126.665 296.5,128C 305.066,129.063 313.399,128.397 321.5,126C 321.167,125.667 320.833,125.333 320.5,125C 323.608,123.241 326.941,122.408 330.5,122.5 Z"/></g>
<g><path style="opacity:1" fill="#dabcaa" d="M 246.5,122.5 C 245.699,124.042 245.366,125.708 245.5,127.5C 242.204,132.474 238.871,137.474 235.5,142.5C 234.833,142.833 234.167,143.167 233.5,143.5C 233.343,142.127 233.51,140.793 234,139.5C 236.435,135.669 238.602,131.669 240.5,127.5C 241.5,127.5 242.5,127.5 243.5,127.5C 242.916,124.715 243.916,123.048 246.5,122.5 Z"/></g>
<g><path style="opacity:1" fill="#dc755d" d="M 273.5,130.5 C 276.203,132.181 278.869,133.847 281.5,135.5C 281.5,135.833 281.5,136.167 281.5,136.5C 278.414,136.401 276.081,135.068 274.5,132.5C 274.167,132.5 273.833,132.5 273.5,132.5C 273.5,131.833 273.5,131.167 273.5,130.5 Z"/></g>
<g><path style="opacity:1" fill="#d5513b" d="M 245.5,127.5 C 245.628,129.655 245.128,131.655 244,133.5C 241.528,135.298 239.861,137.632 239,140.5C 237.887,141.305 236.721,141.972 235.5,142.5C 238.871,137.474 242.204,132.474 245.5,127.5 Z"/></g>
<g><path style="opacity:1" fill="#da452c" d="M 274.5,132.5 C 276.081,135.068 278.414,136.401 281.5,136.5C 284.208,138.353 287.208,139.353 290.5,139.5C 291.11,140.391 291.443,141.391 291.5,142.5C 290.167,143.167 288.833,143.833 287.5,144.5C 287.721,143.265 288.388,142.265 289.5,141.5C 285.14,139.242 280.473,137.909 275.5,137.5C 275.371,135.784 275.038,134.117 274.5,132.5 Z"/></g>
<g><path style="opacity:0.447" fill="#eba091" d="M 281.5,136.5 C 281.5,136.167 281.5,135.833 281.5,135.5C 284.686,136.597 287.686,137.93 290.5,139.5C 287.208,139.353 284.208,138.353 281.5,136.5 Z"/></g>
<g><path style="opacity:1" fill="#ee3d20" d="M 257.5,111.5 C 257.833,111.5 258.167,111.5 258.5,111.5C 258.5,112.167 258.5,112.833 258.5,113.5C 258.678,116.216 259.178,118.883 260,121.5C 262.209,122.92 264.209,124.587 266,126.5C 266.417,130.972 268.917,132.972 273.5,132.5C 273.833,132.5 274.167,132.5 274.5,132.5C 275.038,134.117 275.371,135.784 275.5,137.5C 280.473,137.909 285.14,139.242 289.5,141.5C 288.388,142.265 287.721,143.265 287.5,144.5C 283.386,144.792 279.886,146.459 277,149.5C 276.667,149.167 276.333,148.833 276,148.5C 275.781,149.938 275.281,151.271 274.5,152.5C 273.914,152.291 273.414,151.957 273,151.5C 270.96,153.041 268.793,154.374 266.5,155.5C 265.253,157.323 264.586,159.323 264.5,161.5C 263.178,161.67 262.011,161.337 261,160.5C 260.506,162.134 260.34,163.801 260.5,165.5C 259.167,165.5 257.833,165.5 256.5,165.5C 256.371,167.216 256.038,168.883 255.5,170.5C 255.5,170.833 255.5,171.167 255.5,171.5C 253.246,172.124 251.579,173.457 250.5,175.5C 248.596,175.738 247.262,176.738 246.5,178.5C 242.886,180.148 239.219,181.481 235.5,182.5C 235.594,185.541 234.094,187.207 231,187.5C 230.517,188.448 230.351,189.448 230.5,190.5C 229.833,190.5 229.5,190.833 229.5,191.5C 227.147,192.34 225.147,193.674 223.5,195.5C 222.564,196.974 221.23,197.974 219.5,198.5C 216.996,200.144 214.329,201.644 211.5,203C 210.207,203.49 208.873,203.657 207.5,203.5C 207.5,204.5 207.5,205.5 207.5,206.5C 204.454,206.183 202.787,207.516 202.5,210.5C 195.759,214.425 188.759,217.925 181.5,221C 181.833,221.333 182.167,221.667 182.5,222C 181.047,224.114 179.047,225.448 176.5,226C 175.748,226.671 175.414,227.504 175.5,228.5C 175.5,228.833 175.5,229.167 175.5,229.5C 171.046,230.626 167.379,232.959 164.5,236.5C 162.716,236.893 161.05,237.559 159.5,238.5C 155.642,239.839 151.642,240.673 147.5,241C 145.305,244.359 142.638,247.193 139.5,249.5C 137.973,249.427 136.973,250.094 136.5,251.5C 136.167,251.5 135.833,251.5 135.5,251.5C 132.715,250.983 130.048,250.15 127.5,249C 128.858,248.066 130.192,247.232 131.5,246.5C 135.526,242.269 140.193,238.936 145.5,236.5C 146.362,235.234 147.029,233.901 147.5,232.5C 150.089,231.581 152.089,229.914 153.5,227.5C 155.246,225.748 157.246,224.415 159.5,223.5C 163.701,221.971 167.034,219.304 169.5,215.5C 171.194,213.139 173.194,211.139 175.5,209.5C 177.255,208.928 178.922,208.094 180.5,207C 187.091,200.578 193.424,194.078 199.5,187.5C 204.86,182.806 209.86,177.806 214.5,172.5C 218.211,168.953 221.378,164.953 224,160.5C 225.011,159.663 226.178,159.33 227.5,159.5C 228.68,155.784 230.013,152.117 231.5,148.5C 233.326,146.853 234.66,144.853 235.5,142.5C 236.721,141.972 237.887,141.305 239,140.5C 239.861,137.632 241.528,135.298 244,133.5C 245.128,131.655 245.628,129.655 245.5,127.5C 248.328,123.853 251.161,120.187 254,116.5C 254.192,114.423 254.692,112.423 255.5,110.5C 256.183,110.863 256.85,111.196 257.5,111.5 Z"/></g>
<g><path style="opacity:0.649" fill="#8dadbc" d="M 74.5,83.5 C 74.8325,147.336 74.4991,211.002 73.5,274.5C 73.5,273.167 73.5,271.833 73.5,270.5C 72.3447,209.528 72.178,148.528 73,87.5C 73.21,85.9419 73.71,84.6085 74.5,83.5 Z"/></g>
<g><path style="opacity:0.631" fill="#8aadb7" d="M 321.5,139.5 C 322.568,138.566 323.901,138.232 325.5,138.5C 326.819,196.646 326.819,254.646 325.5,312.5C 325.167,312.5 324.833,312.5 324.5,312.5C 324.5,254.833 324.5,197.167 324.5,139.5C 323.5,139.5 322.5,139.5 321.5,139.5 Z"/></g>
<g><path style="opacity:0.006" fill="#fcf1f6" d="M 73.5,270.5 C 73.5,271.833 73.5,273.167 73.5,274.5C 73.5,274.833 73.5,275.167 73.5,275.5C 72.5,275.5 71.5,275.5 70.5,275.5C 71.7671,273.961 72.7671,272.294 73.5,270.5 Z"/></g>
<g><path style="opacity:0.906" fill="#cd7664" d="M 70.5,275.5 C 71.5,275.5 72.5,275.5 73.5,275.5C 73.5,276.5 73.5,277.5 73.5,278.5C 72.8333,278.5 72.5,278.833 72.5,279.5C 69.9333,280.475 67.2666,281.142 64.5,281.5C 62.1305,281.851 59.7972,282.018 57.5,282C 59.8791,281.284 61.8791,280.117 63.5,278.5C 65.5093,276.935 67.8427,275.935 70.5,275.5 Z"/></g>
<g><path style="opacity:0.871" fill="#d69280" d="M 63.5,278.5 C 61.8791,280.117 59.8791,281.284 57.5,282C 59.7972,282.018 62.1305,281.851 64.5,281.5C 61.7846,283.072 58.7846,284.072 55.5,284.5C 54.1266,284.657 52.7932,284.49 51.5,284C 52.4158,283.722 53.0825,283.222 53.5,282.5C 56.5299,280.597 59.8632,279.263 63.5,278.5 Z"/></g>
<g><path style="opacity:0.761" fill="#d9aea6" d="M 53.5,282.5 C 53.0825,283.222 52.4158,283.722 51.5,284C 52.7932,284.49 54.1266,284.657 55.5,284.5C 50.4904,287.168 45.157,288.168 39.5,287.5C 43.8303,284.917 48.4969,283.25 53.5,282.5 Z"/></g>
<g><path style="opacity:0.636" fill="#94b3c0" d="M 73.5,278.5 C 74.4952,290.655 74.8286,302.989 74.5,315.5C 73.71,314.391 73.21,313.058 73,311.5C 72.8334,300.548 72.6668,289.881 72.5,279.5C 72.5,278.833 72.8333,278.5 73.5,278.5 Z"/></g>
<g><path style="opacity:0.204" fill="#b3dcdf" d="M 324.5,312.5 C 324.833,312.5 325.167,312.5 325.5,312.5C 325.598,314.553 324.931,316.22 323.5,317.5C 323.629,315.784 323.962,314.117 324.5,312.5 Z"/></g>
<g><path style="opacity:0.404" fill="#aecdcf" d="M 76.5,319.5 C 78.5,319.5 79.5,320.5 79.5,322.5C 78.1667,321.833 77.1667,320.833 76.5,319.5 Z"/></g>
<g><path style="opacity:0.075" fill="#bad4d5" d="M 322.5,319.5 C 321.833,320.833 320.833,321.833 319.5,322.5C 319.5,320.5 320.5,319.5 322.5,319.5 Z"/></g>
<g><path style="opacity:0.985" fill="#236174" d="M 75.5,81.5 C 75.8333,81.5 76.1667,81.5 76.5,81.5C 77.0431,81.56 77.3764,81.8933 77.5,82.5C 76.726,86.7793 76.226,91.1126 76,95.5C 75.3333,155.5 75.3333,215.5 76,275.5C 76.5,276.5 77,277.5 77.5,278.5C 75.0213,291.421 75.1879,304.421 78,317.5C 79.5429,319.378 81.3762,320.878 83.5,322C 123.482,323.13 163.482,323.63 203.5,323.5C 239.5,323.333 275.5,323.167 311.5,323C 313.577,322.808 315.577,322.308 317.5,321.5C 316.45,319.898 317.117,319.065 319.5,319C 322.391,314.825 323.058,310.325 321.5,305.5C 321.808,304.692 322.308,304.025 323,303.5C 323.5,250.168 323.667,196.834 323.5,143.5C 321.62,143.771 320.287,143.104 319.5,141.5C 320.167,140.833 320.833,140.167 321.5,139.5C 322.5,139.5 323.5,139.5 324.5,139.5C 324.5,197.167 324.5,254.833 324.5,312.5C 323.962,314.117 323.629,315.784 323.5,317.5C 323.672,318.492 323.338,319.158 322.5,319.5C 320.5,319.5 319.5,320.5 319.5,322.5C 317.281,324.606 314.615,325.606 311.5,325.5C 235.478,325.821 159.478,325.488 83.5,324.5C 81.847,324.34 80.5137,323.674 79.5,322.5C 79.5,320.5 78.5,319.5 76.5,319.5C 75.3263,318.486 74.6596,317.153 74.5,315.5C 74.8286,302.989 74.4952,290.655 73.5,278.5C 73.5,277.5 73.5,276.5 73.5,275.5C 73.5,275.167 73.5,274.833 73.5,274.5C 74.4991,211.002 74.8325,147.336 74.5,83.5C 74.3284,82.5084 74.6618,81.8417 75.5,81.5 Z"/></g>
<g><path style="opacity:1" fill="#dfb6a3" d="M 127.5,256.5 C 124.076,259.148 120.409,261.648 116.5,264C 112.811,264.852 109.144,265.685 105.5,266.5C 105.5,266.167 105.5,265.833 105.5,265.5C 107.403,265.204 109.07,264.537 110.5,263.5C 110.833,263.5 111.167,263.5 111.5,263.5C 113.967,263.245 115.967,262.245 117.5,260.5C 120.554,258.645 123.888,257.312 127.5,256.5 Z"/></g>
<g><path style="opacity:1" fill="#db7b6c" d="M 117.5,260.5 C 115.967,262.245 113.967,263.245 111.5,263.5C 111.5,263.167 111.5,262.833 111.5,262.5C 113.421,261.637 115.421,260.971 117.5,260.5 Z"/></g>
<g><path style="opacity:1" fill="#c25844" d="M 111.5,255.5 C 110.246,258.093 108.58,260.427 106.5,262.5C 107.689,263.429 109.022,263.762 110.5,263.5C 109.07,264.537 107.403,265.204 105.5,265.5C 105.5,263.167 105.5,260.833 105.5,258.5C 106.167,258.167 106.833,257.833 107.5,257.5C 108.605,256.4 109.938,255.733 111.5,255.5 Z"/></g>
<g><path style="opacity:1" fill="#e74024" d="M 111.5,262.5 C 111.5,262.833 111.5,263.167 111.5,263.5C 111.167,263.5 110.833,263.5 110.5,263.5C 109.022,263.762 107.689,263.429 106.5,262.5C 108.58,260.427 110.246,258.093 111.5,255.5C 111.833,255.5 112.167,255.5 112.5,255.5C 113.873,255.657 115.207,255.49 116.5,255C 118.394,253.596 120.394,252.43 122.5,251.5C 123.737,251.556 124.737,252.056 125.5,253C 123.842,254.663 121.842,255.496 119.5,255.5C 119.5,256.5 119.5,257.5 119.5,258.5C 116.873,259.092 114.206,259.425 111.5,259.5C 111.5,260.5 111.5,261.5 111.5,262.5 Z"/></g>
<g><path style="opacity:1" fill="#d9baaa" d="M 159.5,239.5 C 159.428,241.311 158.595,242.644 157,243.5C 154.268,244.886 151.435,245.886 148.5,246.5C 147.318,248.814 145.985,251.148 144.5,253.5C 143.833,252.833 143.167,252.167 142.5,251.5C 141.3,252.531 139.966,253.365 138.5,254C 134.649,254.414 130.983,255.248 127.5,256.5C 130.146,254.865 132.813,253.198 135.5,251.5C 135.833,251.5 136.167,251.5 136.5,251.5C 138.027,251.573 139.027,250.906 139.5,249.5C 146.163,246.169 152.83,242.836 159.5,239.5 Z"/></g>
<g><path style="opacity:1" fill="#d77160" d="M 139.5,249.5 C 139.027,250.906 138.027,251.573 136.5,251.5C 136.973,250.094 137.973,249.427 139.5,249.5 Z"/></g>
<g><path style="opacity:1" fill="#df472f" d="M 127.5,246.5 C 128.833,246.5 130.167,246.5 131.5,246.5C 130.192,247.232 128.858,248.066 127.5,249C 130.048,250.15 132.715,250.983 135.5,251.5C 132.813,253.198 130.146,254.865 127.5,256.5C 123.888,257.312 120.554,258.645 117.5,260.5C 115.421,260.971 113.421,261.637 111.5,262.5C 111.5,261.5 111.5,260.5 111.5,259.5C 114.206,259.425 116.873,259.092 119.5,258.5C 119.5,257.5 119.5,256.5 119.5,255.5C 121.842,255.496 123.842,254.663 125.5,253C 124.737,252.056 123.737,251.556 122.5,251.5C 120.394,252.43 118.394,253.596 116.5,255C 115.207,255.49 113.873,255.657 112.5,255.5C 116.995,251.749 121.995,248.749 127.5,246.5 Z"/></g>
<g><path style="opacity:1" fill="#ddbcac" d="M 145.5,232.5 C 139.764,237.577 133.764,242.243 127.5,246.5C 121.995,248.749 116.995,251.749 112.5,255.5C 112.167,255.5 111.833,255.5 111.5,255.5C 109.938,255.733 108.605,256.4 107.5,257.5C 107.263,256.209 107.596,255.209 108.5,254.5C 112.745,252.29 117.079,250.123 121.5,248C 122.051,246.602 122.384,245.268 122.5,244C 124.891,243.713 127.224,243.213 129.5,242.5C 130.386,241.675 130.719,240.675 130.5,239.5C 131.873,239.657 133.207,239.49 134.5,239C 136.79,236.785 139.457,235.119 142.5,234C 142.167,233.667 141.833,233.333 141.5,233C 142.793,232.51 144.127,232.343 145.5,232.5 Z"/></g>
<g><path style="opacity:1" fill="#dd482e" d="M 159.5,238.5 C 159.5,238.833 159.5,239.167 159.5,239.5C 152.83,242.836 146.163,246.169 139.5,249.5C 142.638,247.193 145.305,244.359 147.5,241C 151.642,240.673 155.642,239.839 159.5,238.5 Z"/></g>
<g><path style="opacity:1" fill="#d5553a" d="M 145.5,232.5 C 146.167,232.5 146.833,232.5 147.5,232.5C 147.029,233.901 146.362,235.234 145.5,236.5C 140.193,238.936 135.526,242.269 131.5,246.5C 130.167,246.5 128.833,246.5 127.5,246.5C 133.764,242.243 139.764,237.577 145.5,232.5 Z"/></g>
<g><path style="opacity:1" fill="#e49b89" d="M 164.5,236.5 C 163.514,238.408 161.848,239.408 159.5,239.5C 159.5,239.167 159.5,238.833 159.5,238.5C 161.05,237.559 162.716,236.893 164.5,236.5 Z"/></g>
<g><path style="opacity:1" fill="#dfa697" d="M 175.5,229.5 C 173.546,232.091 171.213,234.258 168.5,236C 167.207,236.49 165.873,236.657 164.5,236.5C 167.379,232.959 171.046,230.626 175.5,229.5 Z"/></g>
<g><path style="opacity:1" fill="#d5725a" d="M 153.5,227.5 C 152.089,229.914 150.089,231.581 147.5,232.5C 148.911,230.086 150.911,228.419 153.5,227.5 Z"/></g>
<g><path style="opacity:1" fill="#e2ad98" d="M 186.5,222.5 C 185.766,223.708 185.433,225.041 185.5,226.5C 182.136,227.561 178.803,228.561 175.5,229.5C 175.5,229.167 175.5,228.833 175.5,228.5C 179.354,226.742 183.021,224.742 186.5,222.5 Z"/></g>
<g><path style="opacity:1" fill="#dc462f" d="M 202.5,210.5 C 197.843,214.164 193.177,217.83 188.5,221.5C 187.508,221.328 186.842,221.662 186.5,222.5C 183.021,224.742 179.354,226.742 175.5,228.5C 175.414,227.504 175.748,226.671 176.5,226C 179.047,225.448 181.047,224.114 182.5,222C 182.167,221.667 181.833,221.333 181.5,221C 188.759,217.925 195.759,214.425 202.5,210.5 Z"/></g>
<g><path style="opacity:1" fill="#d8beb0" d="M 165.5,217.5 C 163.424,219.515 161.424,221.515 159.5,223.5C 157.246,224.415 155.246,225.748 153.5,227.5C 150.911,228.419 148.911,230.086 147.5,232.5C 146.833,232.5 146.167,232.5 145.5,232.5C 145.34,230.801 145.506,229.134 146,227.5C 147.516,230.051 148.349,229.718 148.5,226.5C 150.199,226.66 151.866,226.494 153.5,226C 154.198,223.546 155.198,221.213 156.5,219C 159.544,218.637 162.544,218.137 165.5,217.5 Z"/></g>
<g><path style="opacity:1" fill="#d2573f" d="M 169.5,215.5 C 167.034,219.304 163.701,221.971 159.5,223.5C 161.424,221.515 163.424,219.515 165.5,217.5C 166.605,216.4 167.938,215.733 169.5,215.5 Z"/></g>
<g><path style="opacity:1" fill="#d5bbb0" d="M 202.5,210.5 C 203.167,210.5 203.833,210.5 204.5,210.5C 203.707,213.624 204.707,216.29 207.5,218.5C 207.167,218.833 206.833,219.167 206.5,219.5C 204.659,217.83 202.492,216.83 200,216.5C 196.468,218.849 192.634,220.516 188.5,221.5C 193.177,217.83 197.843,214.164 202.5,210.5 Z"/></g>
<g><path style="opacity:1" fill="#e2b2a3" d="M 214.5,203.5 C 212.493,207.628 209.159,209.962 204.5,210.5C 207.275,207.395 210.608,205.062 214.5,203.5 Z"/></g>
<g><path style="opacity:1" fill="#dcbaab" d="M 176.5,207.5 C 176.167,208.167 175.833,208.833 175.5,209.5C 173.194,211.139 171.194,213.139 169.5,215.5C 167.938,215.733 166.605,216.4 165.5,217.5C 165.658,213.582 167.658,211.582 171.5,211.5C 171.5,210.167 171.5,208.833 171.5,207.5C 173.167,207.5 174.833,207.5 176.5,207.5 Z"/></g>
<g><path style="opacity:1" fill="#d6513a" d="M 219.5,198.5 C 218.5,199.833 217.5,201.167 216.5,202.5C 215.508,202.328 214.842,202.662 214.5,203.5C 210.608,205.062 207.275,207.395 204.5,210.5C 203.833,210.5 203.167,210.5 202.5,210.5C 202.787,207.516 204.454,206.183 207.5,206.5C 207.5,205.5 207.5,204.5 207.5,203.5C 208.873,203.657 210.207,203.49 211.5,203C 214.329,201.644 216.996,200.144 219.5,198.5 Z"/></g>
<g><path style="opacity:1" fill="#d2624c" d="M 199.5,187.5 C 193.424,194.078 187.091,200.578 180.5,207C 178.922,208.094 177.255,208.928 175.5,209.5C 175.833,208.833 176.167,208.167 176.5,207.5C 184.237,200.753 191.904,194.086 199.5,187.5 Z"/></g>
<g><path style="opacity:1" fill="#e5af9e" d="M 223.5,195.5 C 224.167,195.5 224.833,195.5 225.5,195.5C 222.792,198.209 219.792,200.542 216.5,202.5C 217.5,201.167 218.5,199.833 219.5,198.5C 221.23,197.974 222.564,196.974 223.5,195.5 Z"/></g>
<g><path style="opacity:1" fill="#d2775d" d="M 229.5,191.5 C 228.473,193.194 227.139,194.527 225.5,195.5C 224.833,195.5 224.167,195.5 223.5,195.5C 225.147,193.674 227.147,192.34 229.5,191.5 Z"/></g>
<g><path style="opacity:1" fill="#d2c0b4" d="M 208.5,175.5 C 205.476,179.518 202.476,183.518 199.5,187.5C 191.904,194.086 184.237,200.753 176.5,207.5C 176.343,206.127 176.51,204.793 177,203.5C 177.333,203.833 177.667,204.167 178,204.5C 178.645,203.354 179.478,202.354 180.5,201.5C 177.213,198.492 177.046,195.492 180,192.5C 183.167,194.534 186.501,194.867 190,193.5C 193.476,192.133 193.976,190.3 191.5,188C 192.833,187.667 194.167,187.333 195.5,187C 195.167,186.667 194.833,186.333 194.5,186C 197.452,184.808 200.119,183.308 202.5,181.5C 202.5,177.5 204.5,175.5 208.5,175.5 Z"/></g>
<g><path style="opacity:1" fill="#ddb9a4" d="M 250.5,175.5 C 248.027,180.313 244.361,183.647 239.5,185.5C 239.5,186.5 239.5,187.5 239.5,188.5C 234.623,190.456 229.956,192.789 225.5,195.5C 227.139,194.527 228.473,193.194 229.5,191.5C 229.5,190.833 229.833,190.5 230.5,190.5C 235.872,186.488 241.205,182.488 246.5,178.5C 247.262,176.738 248.596,175.738 250.5,175.5 Z"/></g>
<g><path style="opacity:1" fill="#d44e35" d="M 246.5,178.5 C 241.205,182.488 235.872,186.488 230.5,190.5C 230.351,189.448 230.517,188.448 231,187.5C 234.094,187.207 235.594,185.541 235.5,182.5C 239.219,181.481 242.886,180.148 246.5,178.5 Z"/></g>
<g><path style="opacity:1" fill="#d46a52" d="M 215.5,169.5 C 214.89,170.391 214.557,171.391 214.5,172.5C 209.86,177.806 204.86,182.806 199.5,187.5C 202.476,183.518 205.476,179.518 208.5,175.5C 210.878,173.448 213.211,171.448 215.5,169.5 Z"/></g>
<g><path style="opacity:1" fill="#e19e8b" d="M 255.5,171.5 C 254.461,173.531 252.795,174.864 250.5,175.5C 251.579,173.457 253.246,172.124 255.5,171.5 Z"/></g>
<g><path style="opacity:1" fill="#d9bfaf" d="M 219.5,162.5 C 217.902,164.698 216.569,167.031 215.5,169.5C 213.211,171.448 210.878,173.448 208.5,175.5C 208.5,174.167 208.5,172.833 208.5,171.5C 211.718,171.349 212.051,170.516 209.5,169C 210.649,167.256 211.983,167.089 213.5,168.5C 214.23,165.103 216.23,163.103 219.5,162.5 Z"/></g>
<g><path style="opacity:1" fill="#e09d89" d="M 260.5,167.5 C 259.415,169.587 257.749,170.92 255.5,171.5C 255.5,171.167 255.5,170.833 255.5,170.5C 256.922,169.075 258.589,168.075 260.5,167.5 Z"/></g>
<g><path style="opacity:1" fill="#e08f7b" d="M 267.5,161.5 C 265.761,164.243 263.427,166.243 260.5,167.5C 262.239,164.757 264.573,162.757 267.5,161.5 Z"/></g>
<g><path style="opacity:1" fill="#e24128" d="M 287.5,144.5 C 281.537,149.128 275.87,154.128 270.5,159.5C 268.973,159.427 267.973,160.094 267.5,161.5C 264.573,162.757 262.239,164.757 260.5,167.5C 258.589,168.075 256.922,169.075 255.5,170.5C 256.038,168.883 256.371,167.216 256.5,165.5C 257.833,165.5 259.167,165.5 260.5,165.5C 260.34,163.801 260.506,162.134 261,160.5C 262.011,161.337 263.178,161.67 264.5,161.5C 264.586,159.323 265.253,157.323 266.5,155.5C 268.793,154.374 270.96,153.041 273,151.5C 273.414,151.957 273.914,152.291 274.5,152.5C 275.281,151.271 275.781,149.938 276,148.5C 276.333,148.833 276.667,149.167 277,149.5C 279.886,146.459 283.386,144.792 287.5,144.5 Z"/></g>
<g><path style="opacity:1" fill="#20657c" d="M 294.5,141.5 C 294.334,146.844 294.501,152.177 295,157.5C 296.401,155.808 298.234,155.141 300.5,155.5C 301.64,199.148 301.807,242.815 301,286.5C 299.745,287.211 298.579,288.044 297.5,289C 299.25,290.319 301.25,290.819 303.5,290.5C 303.5,291.5 303.5,292.5 303.5,293.5C 301.193,293.986 299.027,293.986 297,293.5C 295.745,294.211 294.579,295.044 293.5,296C 230.833,296.667 168.167,296.667 105.5,296C 104.333,295.5 103.5,294.667 103,293.5C 102.211,291.288 102.378,289.288 103.5,287.5C 104.366,283.376 105.033,276.043 105.5,265.5C 105.5,265.833 105.5,266.167 105.5,266.5C 105.5,267.5 105.5,268.5 105.5,269.5C 105.5,277.5 105.5,285.5 105.5,293.5C 168.167,293.5 230.833,293.5 293.5,293.5C 293.5,291.5 293.5,289.5 293.5,287.5C 293.168,238.664 293.501,189.997 294.5,141.5 Z"/></g>
<g><path style="opacity:1" fill="#b7cbd2" d="M 105.5,269.5 C 106.167,276.167 106.833,282.833 107.5,289.5C 107.414,290.496 107.748,291.329 108.5,292C 169.503,292.833 230.503,292.667 291.5,291.5C 291.994,289.974 292.661,288.641 293.5,287.5C 293.5,289.5 293.5,291.5 293.5,293.5C 230.833,293.5 168.167,293.5 105.5,293.5C 105.5,285.5 105.5,277.5 105.5,269.5 Z"/></g>
<g><path style="opacity:1" fill="#bfc9bc" d="M 289.5,287.5 C 289.5,288.833 289.5,290.167 289.5,291.5C 230.5,291.5 171.5,291.5 112.5,291.5C 112.389,290.883 112.056,290.383 111.5,290C 170.98,290.15 230.313,289.317 289.5,287.5 Z"/></g>
<g><path style="opacity:1" fill="#c0c7c3" d="M 293.5,140.5 C 299.477,141.165 305.477,141.498 311.5,141.5C 305.977,142.711 300.31,142.711 294.5,141.5C 293.501,189.997 293.168,238.664 293.5,287.5C 292.661,288.641 291.994,289.974 291.5,291.5C 230.503,292.667 169.503,292.833 108.5,292C 107.748,291.329 107.414,290.496 107.5,289.5C 109.167,290.167 110.833,290.833 112.5,291.5C 171.5,291.5 230.5,291.5 289.5,291.5C 289.5,290.167 289.5,288.833 289.5,287.5C 289.833,242.828 289.5,198.162 288.5,153.5C 287.191,155.891 286.191,155.891 285.5,153.5C 286.774,150.391 288.94,148.058 292,146.5C 292.191,144.292 292.691,142.292 293.5,140.5 Z"/></g>
<g><path style="opacity:1" fill="#d8563d" d="M 231.5,148.5 C 230.013,152.117 228.68,155.784 227.5,159.5C 226.178,159.33 225.011,159.663 224,160.5C 221.378,164.953 218.211,168.953 214.5,172.5C 214.557,171.391 214.89,170.391 215.5,169.5C 216.569,167.031 217.902,164.698 219.5,162.5C 223.5,157.833 227.5,153.167 231.5,148.5 Z"/></g>
<g><path style="opacity:1" fill="#c5c6bb" d="M 290.5,139.5 C 291.791,139.263 292.791,139.596 293.5,140.5C 292.691,142.292 292.191,144.292 292,146.5C 288.94,148.058 286.774,150.391 285.5,153.5C 286.191,155.891 287.191,155.891 288.5,153.5C 289.5,198.162 289.833,242.828 289.5,287.5C 230.313,289.317 170.98,290.15 111.5,290C 112.056,290.383 112.389,290.883 112.5,291.5C 110.833,290.833 109.167,290.167 107.5,289.5C 106.833,282.833 106.167,276.167 105.5,269.5C 105.5,268.5 105.5,267.5 105.5,266.5C 109.144,265.685 112.811,264.852 116.5,264C 120.409,261.648 124.076,259.148 127.5,256.5C 130.983,255.248 134.649,254.414 138.5,254C 139.966,253.365 141.3,252.531 142.5,251.5C 143.167,252.167 143.833,252.833 144.5,253.5C 145.985,251.148 147.318,248.814 148.5,246.5C 151.435,245.886 154.268,244.886 157,243.5C 158.595,242.644 159.428,241.311 159.5,239.5C 161.848,239.408 163.514,238.408 164.5,236.5C 165.873,236.657 167.207,236.49 168.5,236C 171.213,234.258 173.546,232.091 175.5,229.5C 178.803,228.561 182.136,227.561 185.5,226.5C 185.433,225.041 185.766,223.708 186.5,222.5C 186.842,221.662 187.508,221.328 188.5,221.5C 192.634,220.516 196.468,218.849 200,216.5C 202.492,216.83 204.659,217.83 206.5,219.5C 206.833,219.167 207.167,218.833 207.5,218.5C 204.707,216.29 203.707,213.624 204.5,210.5C 209.159,209.962 212.493,207.628 214.5,203.5C 214.842,202.662 215.508,202.328 216.5,202.5C 219.792,200.542 222.792,198.209 225.5,195.5C 229.956,192.789 234.623,190.456 239.5,188.5C 239.5,187.5 239.5,186.5 239.5,185.5C 244.361,183.647 248.027,180.313 250.5,175.5C 252.795,174.864 254.461,173.531 255.5,171.5C 257.749,170.92 259.415,169.587 260.5,167.5C 263.427,166.243 265.761,164.243 267.5,161.5C 267.973,160.094 268.973,159.427 270.5,159.5C 277.839,154.152 284.839,148.485 291.5,142.5C 291.443,141.391 291.11,140.391 290.5,139.5 Z"/></g>
<g><path style="opacity:1" fill="#dbbcaf" d="M 233.5,143.5 C 232.559,145.05 231.893,146.716 231.5,148.5C 227.5,153.167 223.5,157.833 219.5,162.5C 220.562,159.482 221.729,156.482 223,153.5C 226.592,153.074 228.092,151.074 227.5,147.5C 228.5,147.5 229.5,147.5 230.5,147.5C 230.5,146.167 230.5,144.833 230.5,143.5C 231.5,143.5 232.5,143.5 233.5,143.5 Z"/></g>
<g><path style="opacity:1" fill="#dd8d7c" d="M 291.5,142.5 C 284.839,148.485 277.839,154.152 270.5,159.5C 275.87,154.128 281.537,149.128 287.5,144.5C 288.833,143.833 290.167,143.167 291.5,142.5 Z"/></g>
<g><path style="opacity:1" fill="#d9705f" d="M 235.5,142.5 C 234.66,144.853 233.326,146.853 231.5,148.5C 231.893,146.716 232.559,145.05 233.5,143.5C 234.167,143.167 234.833,142.833 235.5,142.5 Z"/></g>
<g><path style="opacity:0.643" fill="#99bdc7" d="M 321.5,139.5 C 320.833,140.167 320.167,140.833 319.5,141.5C 316.833,141.5 314.167,141.5 311.5,141.5C 314.656,140.566 317.989,139.899 321.5,139.5 Z"/></g>
<g><path style="opacity:0.027" fill="#dffefe" d="M 83.5,324.5 C 159.478,325.488 235.478,325.821 311.5,325.5C 236.668,326.666 161.668,326.832 86.5,326C 85.2625,325.768 84.2625,325.268 83.5,324.5 Z"/></g>
</svg>
