<?xml version="1.0" encoding="UTF-8"?>
<!DOCTYPE svg PUBLIC "-//W3C//DTD SVG 1.1//EN" "http://www.w3.org/Graphics/SVG/1.1/DTD/svg11.dtd">
<svg xmlns="http://www.w3.org/2000/svg" version="1.1" width="512px" height="256px" style="shape-rendering:geometricPrecision; text-rendering:geometricPrecision; image-rendering:optimizeQuality; fill-rule:evenodd; clip-rule:evenodd" xmlns:xlink="http://www.w3.org/1999/xlink">
<g><path style="opacity:0.951" fill="#e2591b" d="M 359.5,24.5 C 363.422,24.069 366.922,25.069 370,27.5C 376.167,37.1667 382.333,46.8333 388.5,56.5C 402.259,51.9623 416.259,48.7956 430.5,47C 434.277,47.779 436.277,50.1124 436.5,54C 436.066,56.6342 435.233,59.1342 434,61.5C 425.11,71.3856 416.61,81.5523 408.5,92C 413.684,102.51 418.851,113.01 424,123.5C 424.15,135.325 418.317,139.825 406.5,137C 398.833,134.667 391.167,132.333 383.5,130C 381.676,124.241 381.009,118.407 381.5,112.5C 388.792,115.16 396.125,116.827 403.5,117.5C 398.754,109.175 394.421,100.675 390.5,92C 390.667,91.1667 390.833,90.3333 391,89.5C 397.951,81.7602 404.785,73.9269 411.5,66C 400.833,68.3333 390.167,70.6667 379.5,73C 373.957,64.7498 368.79,56.2498 364,47.5C 361.785,58.1241 359.785,68.7908 358,79.5C 347.653,83.3934 337.153,86.8934 326.5,90C 334.304,93.715 342.304,97.0484 350.5,100C 344.858,104.735 338.692,108.568 332,111.5C 323.601,108.588 315.434,105.088 307.5,101C 300.527,94.8582 300.194,88.5249 306.5,82C 319.063,77.2014 331.729,72.7014 344.5,68.5C 346.679,56.439 349.179,44.439 352,32.5C 354.028,29.3078 356.528,26.6411 359.5,24.5 Z"/></g>
<g><path style="opacity:0.867" fill="#3b393d" d="M 164.5,91.5 C 166.5,91.5 168.5,91.5 170.5,91.5C 171.284,98.2013 172.284,104.868 173.5,111.5C 171.712,111.785 170.045,111.452 168.5,110.5C 165.833,106.5 163.167,106.5 160.5,110.5C 158.579,111.641 156.579,111.808 154.5,111C 157.987,104.525 161.32,98.0248 164.5,91.5 Z"/></g>
<g><path style="opacity:0.851" fill="#3b393d" d="M 185.5,91.5 C 189.257,91.0708 192.757,91.7375 196,93.5C 198.334,101.01 195.501,104.677 187.5,104.5C 188.498,109.939 186.498,111.939 181.5,110.5C 182.729,104.116 184.063,97.7826 185.5,91.5 Z M 189.5,96.5 C 193.075,97.2068 193.242,98.2068 190,99.5C 188.317,98.8235 188.15,97.8235 189.5,96.5 Z"/></g>
<g><path style="opacity:0.897" fill="#3b393d" d="M 210.5,91.5 C 212.5,91.5 214.5,91.5 216.5,91.5C 217.5,98.1653 218.5,104.832 219.5,111.5C 217.833,111.5 216.167,111.5 214.5,111.5C 214.22,107.775 212.22,106.608 208.5,108C 206.821,111.297 204.154,112.297 200.5,111C 203.987,104.525 207.32,98.0248 210.5,91.5 Z M 211.5,100.5 C 212.289,100.783 212.956,101.283 213.5,102C 212.184,102.528 211.517,102.028 211.5,100.5 Z"/></g>
<g><path style="opacity:0.811" fill="#3b393d" d="M 234.5,91.5 C 236.857,91.3367 239.19,91.5034 241.5,92C 242.406,93.6995 242.739,95.5328 242.5,97.5C 237.023,95.1223 233.356,96.7889 231.5,102.5C 232.96,106.468 235.626,107.468 239.5,105.5C 241.156,109.748 239.656,111.748 235,111.5C 228.704,110.601 226.037,106.934 227,100.5C 227.923,96.0856 230.423,93.0856 234.5,91.5 Z"/></g>
<g><path style="opacity:0.889" fill="#3b393d" d="M 252.5,91.5 C 254.167,91.5 255.833,91.5 257.5,91.5C 257.167,94.1667 256.833,96.8333 256.5,99.5C 258.833,99.5 261.167,99.5 263.5,99.5C 263.833,96.8333 264.167,94.1667 264.5,91.5C 266.167,91.5 267.833,91.5 269.5,91.5C 268.5,98.168 267.5,104.835 266.5,111.5C 264.833,111.5 263.167,111.5 261.5,111.5C 261.575,108.794 261.908,106.127 262.5,103.5C 260.167,103.5 257.833,103.5 255.5,103.5C 255.167,106.167 254.833,108.833 254.5,111.5C 252.833,111.5 251.167,111.5 249.5,111.5C 250.5,104.833 251.5,98.1667 252.5,91.5 Z"/></g>
<g><path style="opacity:0.873" fill="#3b383d" d="M 280.5,91.5 C 284.167,91.5 287.833,91.5 291.5,91.5C 291.714,93.1439 291.38,94.6439 290.5,96C 287.671,96.0475 285.337,97.0475 283.5,99C 285.473,99.4955 287.473,99.6621 289.5,99.5C 289.5,100.833 289.5,102.167 289.5,103.5C 287.167,103.5 284.833,103.5 282.5,103.5C 282.5,104.5 282.5,105.5 282.5,106.5C 284.5,106.5 286.5,106.5 288.5,106.5C 288.5,108.167 288.5,109.833 288.5,111.5C 284.445,111.824 280.445,111.491 276.5,110.5C 277.945,104.158 279.278,97.825 280.5,91.5 Z"/></g>
<g><path style="opacity:0.962" fill="#3b393d" d="M 112.5,99.5 C 126.242,96.8744 136.575,101.541 143.5,113.5C 139.087,118.21 134.087,122.21 128.5,125.5C 126.292,122.946 123.959,120.446 121.5,118C 115,115.081 110.333,116.915 107.5,123.5C 108.803,125.968 110.303,128.301 112,130.5C 119.073,136.902 125.406,143.902 131,151.5C 136.898,166.489 133.398,178.989 120.5,189C 109.604,194.993 98.2708,195.993 86.5,192C 80.6788,187.871 76.6788,182.371 74.5,175.5C 79.5481,171.553 85.0481,168.22 91,165.5C 92.8752,170.427 96.0418,174.26 100.5,177C 108.479,178.352 113.479,175.185 115.5,167.5C 115.423,165.701 114.923,164.034 114,162.5C 107.667,155.5 101.333,148.5 95,141.5C 86.3634,127.523 88.53,115.357 101.5,105C 105.017,102.674 108.683,100.84 112.5,99.5 Z"/></g>
<g><path style="opacity:0.956" fill="#3b393d" d="M 353.5,101.5 C 354.147,102.274 354.48,103.274 354.5,104.5C 352.924,116.199 351.257,127.866 349.5,139.5C 349.846,140.696 350.346,140.696 351,139.5C 358.962,129.869 367.296,120.536 376,111.5C 378.154,117.274 379.154,123.274 379,129.5C 372.701,135.454 366.868,141.787 361.5,148.5C 371.5,162.833 381.5,177.167 391.5,191.5C 384.524,192.664 377.524,192.831 370.5,192C 362.876,180.585 355.376,169.085 348,157.5C 345.869,168.749 344.202,180.083 343,191.5C 337.259,192.475 331.425,192.808 325.5,192.5C 328.338,167.134 331.504,141.801 335,116.5C 335.273,114.671 336.107,113.171 337.5,112C 343.07,108.725 348.403,105.225 353.5,101.5 Z"/></g>
<g><path style="opacity:0.964" fill="#3b393d" d="M 171.5,123.5 C 202.097,122.928 214.264,137.595 208,167.5C 198.578,187.961 182.745,196.461 160.5,193C 157.136,191.901 153.97,190.401 151,188.5C 149.995,196.543 148.828,204.543 147.5,212.5C 142.167,213.833 136.833,213.833 131.5,212.5C 134.137,194.873 136.637,177.206 139,159.5C 142.281,140.558 153.115,128.558 171.5,123.5 Z M 173.5,139.5 C 190.195,140.029 196.361,148.362 192,164.5C 183.593,178.776 172.593,181.443 159,172.5C 152.325,156.513 157.158,145.513 173.5,139.5 Z"/></g>
<g><path style="opacity:0.958" fill="#3b393d" d="M 247.5,123.5 C 270.681,120.863 283.681,131.029 286.5,154C 285.282,166.579 283.615,179.079 281.5,191.5C 276.198,192.663 270.864,192.829 265.5,192C 268.27,178.668 269.436,165.168 269,151.5C 265.798,142.147 259.298,138.313 249.5,140C 234.053,145.062 228.886,155.229 234,170.5C 244.005,180.701 254.171,180.701 264.5,170.5C 264.674,177.108 263.841,183.774 262,190.5C 250.274,196.125 238.774,195.625 227.5,189C 213.135,175.301 210.969,159.801 221,142.5C 227.562,132.82 236.395,126.486 247.5,123.5 Z"/></g>
<g><path style="opacity:0.959" fill="#3b393d" d="M 308.5,125.5 C 314.833,125.5 321.167,125.5 327.5,125.5C 326.927,130.847 326.26,136.18 325.5,141.5C 321.486,141.334 317.486,141.501 313.5,142C 312.667,142.833 311.833,143.667 311,144.5C 308.599,160.475 306.432,176.475 304.5,192.5C 299.167,192.5 293.833,192.5 288.5,192.5C 290.057,175.1 292.224,157.767 295,140.5C 297.263,133.407 301.763,128.407 308.5,125.5 Z"/></g>
</svg>
